<?xml version="1.0" standalone="no"?>
<!DOCTYPE svg PUBLIC "-//W3C//DTD SVG 20010904//EN"
 "http://www.w3.org/TR/2001/REC-SVG-20010904/DTD/svg10.dtd">
<svg version="1.0" xmlns="http://www.w3.org/2000/svg"
 width="1032.000000pt" height="1032.000000pt" viewBox="0 0 1032.000000 1032.000000"
 preserveAspectRatio="xMidYMid meet">
<metadata>
Created by potrace 1.14, written by Peter Selinger 2001-2017
</metadata>
<g transform="translate(0.000000,1032.000000) scale(0.100000,-0.100000)"
fill="#000000" stroke="none">
<path d="M3958 9725 c-3 -3 -14 -7 -24 -9 -24 -5 -149 -51 -194 -73 -19 -9
-42 -19 -50 -23 -66 -30 -259 -142 -293 -170 -7 -6 -49 -37 -94 -70 -46 -33
-83 -65 -83 -72 0 -6 -3 -9 -6 -5 -3 3 -13 0 -21 -6 -41 -34 -295 -290 -335
-337 -68 -81 -111 -135 -128 -160 -8 -13 -25 -33 -36 -45 -12 -12 -29 -36 -38
-53 -8 -16 -21 -36 -28 -44 -21 -21 -113 -166 -140 -218 -7 -14 -15 -27 -19
-30 -14 -11 -162 -298 -215 -415 -78 -175 -206 -522 -229 -620 -1 -5 -4 -17
-7 -25 -6 -16 -28 -94 -33 -119 -2 -9 -8 -31 -14 -49 -5 -18 -10 -35 -10 -37
-1 -3 -1 -6 -2 -7 -7 -25 -59 -271 -64 -308 -4 -24 -8 -47 -10 -50 -4 -6 -16
-80 -20 -120 -1 -14 -5 -38 -8 -55 -15 -75 -30 -211 -31 -280 -1 -44 2 -59 12
-57 20 4 339 2 412 -3 70 -5 157 -12 230 -20 25 -3 61 -7 80 -9 19 -2 62 -9
95 -15 33 -6 78 -13 100 -16 22 -4 83 -15 135 -26 52 -11 106 -22 120 -25 39
-8 223 -55 240 -61 8 -3 20 -7 25 -7 6 -1 37 -10 70 -20 33 -11 65 -20 70 -22
16 -3 228 -74 250 -83 89 -37 85 -37 80 -10 -2 12 -7 40 -9 63 -3 22 -7 50
-10 61 -2 11 -7 43 -10 70 -4 28 -11 75 -16 105 -5 30 -12 75 -15 100 -3 25
-8 56 -10 70 -2 14 -7 52 -10 85 -4 33 -8 76 -11 95 -3 19 -7 60 -9 90 -2 30
-6 78 -9 105 -9 110 -19 358 -19 490 0 121 3 191 18 410 2 22 5 58 9 80 3 22
8 65 11 95 3 30 10 80 15 110 5 30 12 71 15 90 3 19 10 53 15 75 5 22 12 56
15 75 3 19 11 53 16 75 6 22 12 47 14 55 2 12 22 86 39 145 1 6 8 30 15 55 44
160 143 415 227 584 13 28 24 56 24 63 0 7 4 13 9 13 5 0 14 12 20 28 10 27
65 129 102 189 30 47 34 121 10 175 -23 54 -52 84 -106 109 -37 17 -115 26
-127 14z"/>
<path d="M4903 9530 c-18 -4 -33 -5 -33 -3 0 3 -7 0 -15 -7 -8 -7 -15 -10 -15
-7 0 18 -172 -76 -223 -122 -77 -69 -178 -190 -209 -251 -7 -14 -15 -27 -18
-30 -11 -11 -70 -130 -64 -130 4 0 1 -6 -5 -13 -6 -8 -8 -17 -4 -20 3 -4 2 -7
-4 -7 -6 0 -13 -10 -16 -22 -3 -13 -17 -63 -31 -113 -14 -49 -29 -110 -32
-135 -3 -25 -8 -48 -10 -51 -1 -3 -6 -32 -9 -65 -3 -32 -9 -70 -12 -84 -7 -32
-10 -660 -3 -660 3 0 6 -19 6 -42 2 -124 13 -328 18 -337 4 -5 2 -12 -4 -16
-6 -4 -7 -11 -4 -17 4 -6 8 -33 9 -62 5 -75 15 -215 19 -261 2 -22 7 -76 11
-120 4 -44 8 -93 10 -110 2 -16 6 -55 10 -85 3 -30 8 -71 10 -90 3 -19 7 -57
10 -85 3 -27 8 -66 10 -86 3 -20 8 -56 10 -80 5 -41 6 -57 19 -153 3 -21 7
-40 10 -43 3 -3 18 9 33 28 61 73 350 351 442 426 19 15 42 36 50 46 9 9 19
17 23 17 4 0 20 11 35 24 16 14 40 36 56 49 15 14 43 35 62 48 19 13 35 27 35
32 0 4 6 7 14 7 8 0 16 4 18 8 2 4 35 30 73 57 39 27 72 52 75 55 3 3 52 37
110 75 58 38 108 73 112 79 4 6 8 7 8 2 0 -4 15 3 33 16 35 27 222 138 232
138 3 0 11 5 18 11 24 20 286 153 480 242 79 37 86 44 65 65 -7 7 -9 12 -6 12
8 0 -19 100 -70 255 -43 129 -65 189 -101 278 -31 74 -136 303 -140 307 -3 3
-23 39 -44 80 -92 182 -230 384 -402 589 -40 47 -171 177 -230 227 -58 50
-184 119 -235 130 -45 9 -154 11 -187 4z"/>
<path d="M8068 7745 c-2 -2 -42 -6 -90 -10 -47 -3 -97 -8 -110 -10 -12 -2 -66
-9 -118 -15 -52 -7 -104 -14 -115 -16 -11 -2 -31 -6 -45 -8 -100 -17 -128 -22
-132 -26 -2 -1 -19 -4 -38 -6 -19 -3 -48 -9 -65 -14 -16 -5 -41 -12 -55 -14
-14 -3 -45 -10 -70 -17 -25 -6 -52 -12 -60 -14 -8 -2 -15 -4 -15 -5 0 -1 -13
-4 -30 -6 -16 -3 -32 -8 -35 -12 -3 -4 -15 -8 -28 -10 -13 -2 -49 -12 -80 -23
-31 -11 -64 -21 -73 -23 -57 -14 -328 -117 -468 -177 -118 -51 -422 -198 -431
-209 -3 -3 -32 -19 -65 -36 -115 -60 -130 -69 -138 -81 -4 -7 -12 -13 -18 -13
-9 0 -218 -127 -229 -139 -3 -4 -17 -12 -32 -20 -16 -8 -28 -18 -28 -23 0 -4
-6 -8 -13 -8 -8 0 -22 -9 -32 -20 -10 -11 -22 -20 -26 -20 -5 0 -17 -6 -26
-14 -10 -8 -67 -52 -128 -97 -95 -71 -262 -207 -303 -246 -7 -7 -18 -13 -23
-13 -5 0 -9 -7 -9 -15 0 -8 -4 -15 -9 -15 -30 0 -370 -351 -543 -560 -20 -25
-48 -60 -63 -78 -22 -26 -25 -35 -15 -47 7 -8 19 -15 26 -15 8 0 14 -5 14 -12
0 -6 3 -9 6 -5 3 3 29 -8 57 -24 29 -17 60 -33 70 -36 9 -3 17 -9 17 -14 0 -5
9 -9 20 -9 11 0 20 -4 20 -9 0 -5 9 -13 21 -16 24 -8 270 -156 316 -191 17
-13 34 -24 37 -24 9 0 110 -74 114 -82 2 -5 10 -8 18 -8 8 0 14 -4 14 -10 0
-5 7 -10 15 -10 8 0 15 -4 15 -8 0 -4 12 -15 28 -24 15 -9 36 -24 47 -32 11
-9 56 -44 100 -78 44 -34 85 -67 92 -73 6 -5 24 -20 40 -32 15 -12 42 -34 60
-50 17 -15 52 -46 77 -68 26 -22 72 -63 103 -91 l56 -52 156 65 c86 36 190 78
231 94 41 17 84 34 95 39 11 5 52 21 90 35 39 14 86 33 105 42 19 8 42 16 50
18 14 3 129 46 175 65 11 5 65 25 120 45 55 20 107 39 115 42 8 4 17 7 20 8 3
1 14 5 25 9 11 5 52 19 90 33 39 14 82 32 98 40 15 8 27 12 27 9 0 -2 28 7 63
21 34 13 67 26 72 27 6 2 24 8 40 15 17 6 50 19 75 28 25 9 50 20 56 25 6 4
14 5 17 1 4 -3 12 -1 19 5 16 12 168 72 186 72 6 0 12 5 12 10 0 6 6 10 14 10
16 0 242 92 288 116 15 8 30 14 33 14 3 0 36 14 73 31 37 18 72 33 77 35 6 1
64 28 130 59 361 170 416 195 426 195 5 0 9 5 9 10 0 6 6 10 13 10 8 0 60 25
116 55 57 30 104 55 106 55 2 0 24 14 48 30 25 17 48 30 52 30 4 0 24 14 45
30 21 17 43 30 49 30 6 0 11 5 11 10 0 6 5 10 11 10 28 0 259 207 339 305 106
127 205 339 226 480 10 68 6 216 -6 245 -1 3 -2 8 -2 11 2 12 -57 127 -75 150
-89 107 -176 160 -368 224 -60 20 -117 38 -125 40 -8 1 -33 8 -55 13 -38 11
-61 16 -122 27 -16 3 -39 8 -53 10 -85 17 -139 25 -287 41 -44 5 -531 13 -535
9z"/>
<path d="M10053 6650 c-54 -12 -95 -43 -144 -110 -26 -36 -48 -69 -48 -73 -1
-10 -127 -184 -158 -218 -13 -14 -23 -30 -23 -36 0 -6 -4 -13 -9 -15 -4 -1
-32 -32 -62 -68 -146 -178 -439 -466 -575 -565 -15 -11 -32 -25 -38 -31 -24
-22 -213 -161 -229 -167 -9 -3 -17 -11 -17 -17 0 -6 -5 -8 -10 -5 -6 3 -13 -1
-16 -9 -3 -9 -10 -16 -15 -16 -4 0 -47 -25 -95 -56 -48 -31 -103 -65 -123 -76
-108 -62 -159 -90 -181 -101 -14 -6 -28 -15 -31 -20 -3 -5 -9 -9 -12 -8 -4 0
-75 -33 -159 -73 -84 -40 -193 -90 -243 -111 -49 -21 -109 -46 -132 -56 -23
-11 -44 -19 -47 -19 -2 0 -17 -5 -33 -11 -15 -6 -28 -9 -28 -8 0 1 -11 -4 -25
-11 -14 -8 -29 -15 -35 -16 -5 -1 -45 -15 -87 -32 -89 -35 -524 -179 -648
-216 -47 -13 -130 -39 -185 -56 -55 -17 -107 -32 -115 -33 -8 -2 -20 -6 -26
-9 -6 -4 -21 -9 -35 -12 -13 -2 -36 -9 -51 -15 -16 -6 -28 -8 -28 -5 0 2 -13
-2 -30 -11 -16 -8 -33 -15 -37 -15 -6 0 -51 -13 -123 -35 -3 -1 -26 -7 -52
-15 -27 -7 -48 -15 -48 -19 0 -3 13 -20 28 -38 43 -49 56 -66 82 -103 13 -19
27 -37 30 -40 4 -3 37 -48 74 -100 37 -52 72 -102 79 -111 7 -8 17 -24 23 -35
7 -10 39 -62 72 -114 76 -121 188 -329 184 -342 -1 -5 3 -8 8 -8 6 0 10 -5 10
-10 0 -6 9 -30 20 -52 11 -23 20 -48 20 -55 0 -7 5 -13 10 -13 6 0 10 -7 10
-15 0 -8 4 -23 9 -33 33 -62 137 -371 156 -461 28 -136 35 -171 41 -201 3 -19
7 -42 9 -50 2 -8 4 -23 4 -33 1 -13 6 -17 20 -12 11 3 28 8 40 10 11 2 29 9
40 15 12 6 21 8 21 6 0 -3 51 13 113 35 61 22 119 42 127 44 8 2 71 27 140 55
206 85 422 195 658 335 59 35 273 176 303 200 14 11 36 27 49 35 12 8 28 21
36 28 7 6 15 12 19 12 5 0 221 168 251 195 6 5 24 21 40 34 184 154 461 430
608 604 54 65 140 175 192 245 51 70 98 132 104 139 5 7 10 15 10 18 0 4 11
21 24 38 29 39 132 211 172 287 16 30 33 58 37 61 5 3 9 10 9 15 1 5 20 50 43
99 24 50 52 110 63 135 28 64 103 266 112 303 5 18 17 64 29 102 11 39 22 83
25 98 2 15 7 35 10 45 6 18 13 56 22 112 3 19 7 46 10 60 27 149 25 536 -4
653 -6 20 -8 37 -6 37 7 0 -27 52 -50 78 -42 47 -122 74 -183 62z"/>
<path d="M1957 5973 c-1 0 -63 -4 -137 -7 -74 -3 -151 -8 -171 -10 -20 -3 -59
-7 -85 -10 -27 -4 -76 -11 -109 -17 -33 -6 -73 -13 -88 -15 -85 -11 -412 -108
-506 -151 -133 -60 -222 -105 -257 -131 -67 -49 -89 -114 -71 -212 12 -66 72
-119 172 -151 81 -25 212 -75 237 -89 10 -6 25 -10 33 -10 8 0 15 -4 15 -10 0
-5 5 -10 10 -10 24 0 248 -116 384 -198 37 -23 72 -42 77 -42 5 0 9 -4 9 -10
0 -5 6 -10 13 -10 7 0 23 -9 35 -20 12 -11 24 -20 27 -20 6 0 212 -138 231
-155 6 -5 22 -17 34 -25 57 -38 275 -204 278 -212 2 -4 10 -8 17 -8 7 0 15 -3
17 -7 2 -5 32 -30 68 -57 36 -27 70 -54 75 -60 6 -6 35 -29 65 -51 30 -22 57
-42 60 -45 7 -8 110 -90 144 -114 15 -11 37 -28 49 -39 12 -11 38 -31 57 -46
19 -14 40 -30 46 -36 6 -5 26 -21 44 -35 19 -14 44 -34 56 -45 12 -11 34 -29
49 -39 14 -11 36 -29 49 -40 13 -12 38 -32 56 -45 18 -14 45 -37 60 -51 15
-14 44 -38 64 -54 20 -15 49 -38 64 -51 39 -35 51 -46 97 -84 22 -18 63 -52
90 -76 57 -49 86 -73 134 -112 18 -16 54 -47 80 -70 25 -23 49 -43 53 -43 4 0
23 -15 42 -32 19 -18 42 -40 52 -48 76 -61 300 -246 304 -250 3 -3 23 -18 45
-35 22 -16 42 -32 45 -35 3 -3 34 -28 70 -55 82 -62 88 -67 109 -85 10 -8 25
-19 33 -25 21 -14 381 -272 393 -282 40 -34 449 -313 458 -313 2 0 51 -27 110
-59 58 -33 122 -65 141 -72 20 -7 36 -17 36 -23 0 -5 3 -7 6 -4 3 4 30 -5 60
-18 30 -13 54 -21 54 -19 0 3 12 -1 28 -8 38 -20 182 -55 272 -66 74 -10 271
-8 320 4 14 3 39 8 55 11 46 8 113 32 183 65 63 31 182 134 182 159 0 7 3 10
7 7 8 -8 64 108 66 137 0 11 5 24 9 27 9 6 12 185 5 234 -11 63 -18 101 -24
125 -3 14 -8 34 -10 45 -2 11 -8 38 -14 60 -16 57 -20 76 -26 108 -3 15 -10
27 -16 27 -6 0 -8 3 -5 6 4 3 -5 38 -19 77 -13 40 -26 77 -27 83 -1 7 -8 19
-15 28 -7 9 -11 16 -8 16 14 0 -144 336 -202 430 -12 19 -24 43 -27 53 -4 9
-10 17 -15 17 -5 0 -9 4 -9 10 0 5 -16 34 -35 64 -19 30 -35 58 -35 61 0 4 -6
13 -12 20 -20 23 -32 38 -52 70 -23 35 -129 181 -154 210 -9 11 -35 43 -57 70
-39 50 -84 102 -117 137 -10 10 -16 18 -13 18 12 0 -359 364 -455 447 -194
167 -399 321 -587 442 -59 39 -112 74 -118 78 -5 5 -27 17 -47 28 -21 11 -38
23 -38 28 0 4 -4 6 -9 2 -5 -3 -12 -1 -15 4 -6 9 -77 51 -201 118 -195 106
-549 267 -695 316 -25 8 -69 25 -97 36 -29 11 -53 18 -53 15 0 -4 -6 -2 -12 4
-12 8 -168 60 -200 66 -7 1 -31 8 -53 14 -81 26 -308 81 -360 88 -11 2 -31 6
-45 9 -14 4 -34 8 -45 9 -11 2 -20 4 -20 5 0 1 -16 4 -35 6 -19 2 -51 6 -70 9
-19 3 -55 8 -80 11 -25 3 -61 8 -80 10 -68 10 -136 15 -270 21 -187 8 -231 9
-233 7z"/>
<path d="M375 4905 c-100 -32 -184 -83 -238 -144 -32 -36 -100 -141 -92 -141
3 0 -2 -15 -12 -32 -9 -18 -19 -46 -22 -63 -10 -67 -2 -348 13 -415 3 -14 7
-45 10 -70 23 -192 79 -433 156 -663 27 -81 53 -153 57 -160 4 -7 8 -14 9 -17
4 -21 71 -173 109 -250 12 -25 33 -65 45 -90 28 -56 80 -145 137 -232 23 -37
43 -72 43 -77 0 -5 4 -11 8 -13 5 -1 23 -25 42 -53 19 -27 38 -54 42 -60 4 -5
35 -46 69 -90 154 -199 425 -476 595 -607 16 -12 43 -35 59 -50 17 -15 36 -28
43 -28 6 0 12 -4 12 -8 0 -5 25 -26 56 -48 30 -21 61 -44 68 -50 21 -19 238
-159 346 -223 58 -34 112 -66 120 -71 82 -50 465 -233 605 -290 21 -8 129 -51
180 -71 17 -7 35 -13 40 -15 6 -1 71 -22 145 -47 75 -25 147 -48 160 -51 33
-7 171 -46 190 -53 8 -3 22 -7 30 -8 8 -1 29 -6 45 -9 17 -4 47 -10 68 -13 20
-3 37 -9 37 -12 0 -4 8 -7 18 -7 9 -1 35 -4 57 -8 63 -10 108 -18 130 -23 26
-5 83 -14 115 -18 14 -1 45 -6 70 -10 25 -4 63 -8 85 -10 22 -2 78 -8 125 -12
158 -15 628 -8 750 11 14 2 49 7 79 11 30 4 63 9 75 11 22 5 34 8 101 19 22 3
67 13 100 22 33 9 67 17 75 18 8 1 22 5 30 8 8 3 58 19 110 35 52 17 131 44
175 62 102 41 315 150 315 162 0 5 4 7 8 4 5 -3 19 4 30 15 12 11 22 17 22 14
0 -3 6 -1 13 5 6 6 35 27 62 47 125 94 157 131 159 188 1 11 4 25 7 30 10 16
-24 110 -51 143 -35 41 -83 63 -149 68 -124 9 -197 15 -226 19 -16 2 -55 6
-85 9 -132 14 -342 55 -500 97 -63 17 -122 33 -130 34 -8 2 -16 4 -17 5 -2 2
-6 3 -10 5 -5 1 -15 4 -23 7 -8 3 -40 13 -70 22 -70 23 -236 83 -275 101 -72
32 -110 48 -115 49 -44 11 -435 212 -472 244 -10 8 -18 12 -18 8 0 -4 -6 -2
-12 4 -17 14 -118 80 -124 80 -2 0 -33 20 -68 45 -36 25 -68 45 -71 45 -4 0
-12 6 -19 12 -8 7 -24 20 -36 28 -12 8 -44 31 -70 50 -26 19 -58 42 -70 50
-12 8 -28 20 -34 25 -6 6 -29 24 -51 40 -40 30 -62 48 -95 75 -9 8 -32 26 -50
40 -18 14 -42 33 -54 43 -11 11 -38 33 -60 50 -21 18 -52 45 -70 61 -17 16
-51 45 -75 65 -24 20 -59 50 -76 66 -17 17 -69 64 -115 105 -46 41 -100 91
-120 110 -57 54 -354 337 -430 410 -79 76 -291 275 -336 317 -17 15 -71 64
-119 108 -49 44 -99 90 -112 102 -51 46 -164 146 -185 165 -21 18 -78 66 -138
118 -14 12 -42 36 -64 53 -21 18 -43 37 -50 42 -6 6 -47 39 -91 75 -44 36 -85
69 -91 75 -6 5 -23 19 -38 30 -16 11 -33 25 -40 30 -6 6 -29 24 -51 40 -22 17
-42 32 -45 36 -3 3 -32 25 -65 50 -33 24 -62 47 -63 52 -2 4 -8 5 -13 1 -5 -3
-9 -1 -9 4 0 16 -154 111 -216 134 -88 32 -227 33 -319 3z"/>
</g>
</svg>
