<svg xmlns:inkscape="http://www.inkscape.org/namespaces/inkscape" xmlns:sodipodi="http://sodipodi.sourceforge.net/DTD/sodipodi-0.dtd" xmlns="http://www.w3.org/2000/svg" xmlns:svg="http://www.w3.org/2000/svg" version="1.1" id="svg2" xml:space="preserve" sodipodi:docname="shutterstock_1190131798.eps" viewBox="408.84 304.71 515.65 457.25"><defs id="defs6"/><sodipodi:namedview id="namedview4" pagecolor="#ffffff" bordercolor="#666666" borderopacity="1.0" inkscape:pageshadow="2" inkscape:pageopacity="0.0" inkscape:pagecheckerboard="0"/><g id="g8" inkscape:groupmode="layer" inkscape:label="ink_ext_XXXXXX" transform="matrix(1.3333333,0,0,-1.3333333,0,1066.6667)"><g id="g10" transform="scale(0.1)"><path d="m 4160.43,3190.53 c -44.89,41.42 -89.04,83.51 -132.78,125.67 -207.38,199.85 -415.6,392.76 -649.43,562.08 -132.81,96.17 -319.59,-3.99 -311.67,-167.78 16.43,-339.41 161.87,-851.52 799.86,-1191.27 571.8,-304.49 1188.6,-306.32 1517.57,-36.93 54.35,44.5 26.47,132.42 -43.72,135.32 -216.68,8.94 -428.69,68.64 -622.28,165.42 -207.36,103.66 -387.66,250.72 -557.55,407.49" style="fill:#351f17;fill-opacity:1;fill-rule:nonzero;stroke:none" id="path12"/><path d="m 6923.19,4497.18 c -11.95,69.23 -102.2,88.29 -139.3,28.64 -114.54,-184.16 -270.95,-339.22 -450.56,-460 -192.38,-129.37 -409.18,-213.8 -629.31,-284.39 -58.16,-18.66 -116.54,-36.34 -174.77,-53.63 -59.94,-17.79 -119.47,-35.98 -178.85,-54.48 173.08,-206.36 288.54,-434.74 324.58,-659.29 1.58,-9.81 2.11,-18.88 2.96,-28.17 147.1,39.6 302.8,105.61 465.37,208.96 546.7,347.54 852.2,883.37 779.88,1302.36 z m -336.38,-27.3 c 125.25,129.66 192.12,357.33 -22.15,437.01 -352.1,130.96 -854.79,65.33 -1317.78,-206.72 -236.29,-138.85 -430,-313.03 -571.25,-499.54 38.86,-19.54 77.37,-40.2 115.35,-62.16 151.54,-87.65 288.93,-190.85 408.24,-304.11 34.04,13.91 67.56,27.56 100.12,41.08 282.08,117.12 575.92,205.51 852.26,336.48 148.09,70.19 317.17,135.77 435.21,257.96" style="fill:#5a3114;fill-opacity:1;fill-rule:nonzero;stroke:none" id="path14"/><path d="m 5071.96,5581.62 c -169.51,153.38 -340.7,-10.94 -398,-181.86 -54,-161.09 -34.22,-341.35 -28.22,-505.13 6.12,-167.03 25.98,-332.84 46.96,-498.55 139.29,153.1 308.35,290.2 497.16,401.11 80.88,47.52 164.03,89.36 248.29,125.61 -70.8,276.35 -199.45,507.95 -366.19,658.82" style="fill:#351f17;fill-opacity:1;fill-rule:nonzero;stroke:none" id="path16"/><path d="m 4543.08,5710.83 c -405.14,-129.02 -739.74,-647.18 -796.04,-1292.55 -0.04,-0.42 -0.03,-0.8 -0.07,-1.22 22.85,1.08 45.83,1.89 69.15,1.89 211.38,0 436.24,-45.55 655.71,-129.29 -0.54,3.11 -1.18,6.19 -1.71,9.31 -38.86,227.88 -63.91,459.19 -37.82,689.55 24.35,215.06 89.83,425.36 200.42,611.91 35.82,60.43 -22.7,131.72 -89.64,110.4" style="fill:#351f17;fill-opacity:1;fill-rule:nonzero;stroke:none" id="path18"/><path d="m 3299.88,4184.43 c -57.02,-32.48 -46.32,-118.31 16.54,-137.23 264.92,-79.75 512.08,-291.13 726.42,-458.19 240.9,-187.76 462.61,-399.91 712.73,-575.84 134.05,-94.29 274.42,-209.11 438.91,-251.62 174.55,-45.1 405.61,8.89 369.37,234.61 -59.53,370.91 -364.33,776.01 -829.19,1044.86 -518.69,299.97 -1085.03,342.59 -1434.78,143.41" style="fill:#351f17;fill-opacity:1;fill-rule:nonzero;stroke:none" id="path20"/></g></g></svg>